# WaveFront *.obj file (generated by Autodesk ATF)

mtllib 1.mtl

g Sólido1

v 0.000000 0.000000 0.000000
v 0.000000 0.000000 55.000000
v 0.000000 17.000000 35.000000
v 0.000000 17.000000 55.000000
v 0.000000 24.000001 15.000000
v 0.000000 24.000001 35.000000
v 0.000000 40.000000 0.000000
v 0.000000 40.000000 15.000000
v 10.000000 0.000000 33.000000
v 10.000000 0.000000 55.000000
v 10.000000 17.000000 35.000000
v 10.000000 17.000000 55.000000
v 10.000000 24.000001 33.000000
v 10.000000 24.000001 35.000000
v 15.000000 30.000000 0.000000
v 15.000000 30.000000 15.000000
v 15.000000 40.000000 0.000000
v 15.000000 40.000000 15.000000
v 35.000000 30.000000 0.000000
v 35.000000 30.000000 15.000000
v 35.000000 40.000000 0.000000
v 35.000000 40.000000 15.000000
v 40.000000 0.000000 33.000000
v 40.000000 0.000000 55.000000
v 40.000000 17.000000 35.000000
v 40.000000 17.000000 55.000000
v 40.000000 24.000001 33.000000
v 40.000000 24.000001 35.000000
v 50.000000 0.000000 0.000000
v 50.000000 0.000000 55.000000
v 50.000000 17.000000 35.000000
v 50.000000 17.000000 55.000000
v 50.000000 24.000001 15.000000
v 50.000000 24.000001 35.000000
v 50.000000 40.000000 0.000000
v 50.000000 40.000000 15.000000
vt -0.000000 0.100000 0.000000
vt -0.091667 0.100000 0.000000
vt -0.091667 0.000000 0.000000
vt -0.083333 0.000000 0.000000
vt -0.083333 0.029167 0.000000
vt -0.000000 0.029167 0.000000
vt -0.000000 0.100000 0.000000
vt -0.091667 0.100000 0.000000
vt -0.091667 0.029167 0.000000
vt -0.008333 0.029167 0.000000
vt -0.008333 0.000000 0.000000
vt -0.000000 0.000000 0.000000
vt -0.000000 0.100000 0.000000
vt -0.125000 0.100000 0.000000
vt -0.125000 0.000000 0.000000
vt -0.000000 0.000000 0.000000
vt 0.062500 -0.012500 0.000000
vt 0.062500 -0.083333 0.000000
vt 0.104167 -0.083333 0.000000
vt 0.104167 -0.012500 0.000000
vt -0.062500 -0.083333 0.000000
vt -0.062500 -0.012500 0.000000
vt -0.104167 -0.012500 0.000000
vt -0.104167 -0.083333 0.000000
vt -0.083333 0.166667 0.000000
vt -0.075000 0.166667 0.000000
vt -0.075000 0.041667 0.000000
vt -0.083333 0.041667 0.000000
vt -0.083333 0.000000 0.000000
vt -0.000000 0.000000 0.000000
vt -0.000000 0.208333 0.000000
vt -0.083333 0.208333 0.000000
vt -0.000000 0.041667 0.000000
vt -0.083333 0.041667 0.000000
vt -0.083333 0.000000 0.000000
vt -0.000000 0.000000 0.000000
vt -0.000000 0.041667 0.000000
vt -0.029167 0.041667 0.000000
vt -0.029167 0.000000 0.000000
vt -0.000000 0.000000 0.000000
vt -0.029167 0.166667 0.000000
vt -0.000000 0.166667 0.000000
vt -0.000000 0.208333 0.000000
vt -0.029167 0.208333 0.000000
vt -0.000000 0.208333 0.000000
vt -0.066667 0.208333 0.000000
vt -0.066667 0.000000 0.000000
vt -0.000000 0.000000 0.000000
vt -0.000000 0.062500 0.000000
vt -0.041667 0.062500 0.000000
vt -0.041667 0.145833 0.000000
vt -0.000000 0.145833 0.000000
vt -0.083333 0.166667 0.000000
vt -0.000000 0.166667 0.000000
vt -0.000000 0.208333 0.000000
vt -0.083333 0.208333 0.000000
vt 0.095833 0.229167 0.000000
vt 0.095833 0.145833 0.000000
vt 0.066667 0.145833 0.000000
vt 0.066667 0.062500 0.000000
vt 0.000000 0.062500 0.000000
vt 0.000000 0.000000 0.000000
vt 0.166667 0.000000 0.000000
vt 0.166667 0.229167 0.000000
vt 0.062500 0.062500 0.000000
vt 0.000000 0.062500 0.000000
vt 0.000000 0.000000 0.000000
vt 0.062500 0.000000 0.000000
vt 0.041667 0.062500 0.000000
vt 0.000000 0.062500 0.000000
vt 0.000000 0.000000 0.000000
vt 0.041667 0.000000 0.000000
vt 0.083333 0.062500 0.000000
vt 0.000000 0.062500 0.000000
vt 0.000000 0.000000 0.000000
vt 0.083333 0.000000 0.000000
vt 0.041667 0.062500 0.000000
vt 0.000000 0.062500 0.000000
vt 0.000000 0.000000 0.000000
vt 0.041667 0.000000 0.000000
vt 0.062500 0.062500 0.000000
vt 0.000000 0.062500 0.000000
vt 0.000000 0.000000 0.000000
vt 0.062500 0.000000 0.000000
vt 0.070833 0.145833 0.000000
vt 0.070833 0.229167 0.000000
vt 0.000000 0.229167 0.000000
vt 0.000000 0.000000 0.000000
vt 0.166667 0.000000 0.000000
vt 0.166667 0.062500 0.000000
vt 0.100000 0.062500 0.000000
vt 0.100000 0.145833 0.000000
vt 0.041667 0.137500 0.000000
vt 0.041667 0.229167 0.000000
vt 0.000000 0.229167 0.000000
vt 0.000000 0.000000 0.000000
vt 0.208333 0.000000 0.000000
vt 0.208333 0.229167 0.000000
vt 0.166667 0.229167 0.000000
vt 0.166667 0.137500 0.000000
vt 0.041667 0.083333 0.000000
vt 0.041667 0.041667 0.000000
vt -0.041667 0.041667 0.000000
vt -0.041667 0.083333 0.000000
vt -0.104167 0.083333 0.000000
vt -0.104167 -0.083333 0.000000
vt 0.104167 -0.083333 0.000000
vt 0.104167 0.083333 0.000000
vn 0.100000 0.000000 0.000000
vn 0.100000 0.000000 0.000000
vn 0.100000 0.000000 0.000000
vn 0.100000 0.000000 0.000000
vn 0.100000 0.000000 0.000000
vn 0.100000 0.000000 0.000000
vn -0.100000 0.000000 0.000000
vn -0.100000 0.000000 0.000000
vn -0.100000 0.000000 0.000000
vn -0.100000 0.000000 0.000000
vn -0.100000 0.000000 0.000000
vn -0.100000 0.000000 0.000000
vn 0.000000 0.000000 0.100000
vn 0.000000 0.000000 0.100000
vn 0.000000 0.000000 0.100000
vn 0.000000 0.000000 0.100000
vn 0.000000 0.000000 0.100000
vn 0.000000 0.000000 0.100000
vn 0.000000 0.000000 0.100000
vn 0.000000 0.000000 0.100000
vn 0.000000 0.000000 0.100000
vn 0.000000 0.000000 0.100000
vn 0.000000 0.000000 0.100000
vn 0.000000 0.000000 0.100000
vn 0.000000 0.100000 0.000000
vn 0.000000 0.100000 0.000000
vn 0.000000 0.100000 0.000000
vn 0.000000 0.100000 0.000000
vn 0.000000 0.100000 0.000000
vn 0.000000 0.100000 0.000000
vn 0.000000 0.100000 0.000000
vn 0.000000 0.100000 0.000000
vn 0.000000 0.100000 0.000000
vn 0.000000 0.100000 0.000000
vn 0.000000 0.100000 0.000000
vn 0.000000 0.100000 0.000000
vn 0.000000 0.000000 0.100000
vn 0.000000 0.000000 0.100000
vn 0.000000 0.000000 0.100000
vn 0.000000 0.000000 0.100000
vn 0.000000 0.000000 0.100000
vn 0.000000 0.000000 0.100000
vn 0.000000 0.000000 0.100000
vn 0.000000 0.000000 0.100000
vn 0.000000 0.000000 0.100000
vn 0.000000 0.000000 0.100000
vn 0.000000 0.000000 0.100000
vn 0.000000 0.000000 0.100000
vn 0.000000 0.000000 0.100000
vn 0.000000 0.000000 0.100000
vn 0.000000 0.000000 0.100000
vn 0.000000 0.000000 0.100000
vn 0.000000 0.100000 0.000000
vn 0.000000 0.100000 0.000000
vn 0.000000 0.100000 0.000000
vn 0.000000 0.100000 0.000000
vn -0.100000 0.000000 0.000000
vn -0.100000 0.000000 0.000000
vn -0.100000 0.000000 0.000000
vn -0.100000 0.000000 0.000000
vn -0.100000 0.000000 0.000000
vn -0.100000 0.000000 0.000000
vn -0.100000 0.000000 0.000000
vn -0.100000 0.000000 0.000000
vn 0.000000 0.100000 0.000000
vn 0.000000 0.100000 0.000000
vn 0.000000 0.100000 0.000000
vn 0.000000 0.100000 0.000000
vn 0.100000 0.000000 0.000000
vn 0.100000 0.000000 0.000000
vn 0.100000 0.000000 0.000000
vn 0.100000 0.000000 0.000000
vn 0.000000 0.100000 0.000000
vn 0.000000 0.100000 0.000000
vn 0.000000 0.100000 0.000000
vn 0.000000 0.100000 0.000000
vn -0.100000 0.000000 0.000000
vn -0.100000 0.000000 0.000000
vn -0.100000 0.000000 0.000000
vn -0.100000 0.000000 0.000000
vn 0.000000 0.100000 0.000000
vn 0.000000 0.100000 0.000000
vn 0.000000 0.100000 0.000000
vn 0.000000 0.100000 0.000000
vn 0.100000 0.000000 0.000000
vn 0.100000 0.000000 0.000000
vn 0.100000 0.000000 0.000000
vn 0.100000 0.000000 0.000000
vn 0.100000 0.000000 0.000000
vn 0.100000 0.000000 0.000000
vn 0.100000 0.000000 0.000000
vn 0.100000 0.000000 0.000000
vn 0.000000 -0.100000 0.000000
vn 0.000000 -0.100000 0.000000
vn 0.000000 -0.100000 0.000000
vn 0.000000 -0.100000 0.000000
vn 0.000000 -0.100000 0.000000
vn 0.000000 -0.100000 0.000000
vn 0.000000 -0.100000 0.000000
vn 0.000000 -0.100000 0.000000
vn 0.000000 0.000000 -0.100000
vn 0.000000 0.000000 -0.100000
vn 0.000000 0.000000 -0.100000
vn 0.000000 0.000000 -0.100000
vn 0.000000 0.000000 -0.100000
vn 0.000000 0.000000 -0.100000
vn 0.000000 0.000000 -0.100000
vn 0.000000 0.000000 -0.100000
usemtl 1,62,241
f 12/6/6 10/1/1 11/5/5
f 11/5/5 10/1/1 9/2/2
f 11/5/5 9/2/2 13/3/3
f 13/3/3 14/4/4 11/5/5
f 27/12/12 23/7/7 25/10/10
f 25/10/10 23/7/7 24/8/8
f 25/10/10 24/8/8 26/9/9
f 25/10/10 28/11/11 27/12/12
f 9/13/13 23/14/14 13/16/16
f 13/16/16 23/14/14 27/15/15
f 24/18/18 30/19/19 26/17/17
f 26/17/17 30/19/19 32/20/20
f 12/22/22 4/23/23 10/21/21
f 10/21/21 4/23/23 2/24/24
f 14/25/25 13/26/26 6/32/32
f 6/32/32 13/26/26 5/31/31
f 5/31/31 13/26/26 33/30/30
f 33/30/30 13/26/26 27/27/27
f 33/30/30 27/27/27 34/29/29
f 34/29/29 27/27/27 28/28/28
f 25/33/33 26/34/34 31/36/36
f 31/36/36 26/34/34 32/35/35
f 28/37/37 25/38/38 34/40/40
f 34/40/40 25/38/38 31/39/39
f 11/41/41 14/42/42 3/44/44
f 3/44/44 14/42/42 6/43/43
f 18/52/52 8/45/45 16/51/51
f 16/51/51 8/45/45 5/46/46
f 16/51/51 5/46/46 33/47/47
f 16/51/51 33/47/47 20/50/50
f 20/50/50 33/47/47 36/48/48
f 20/50/50 36/48/48 22/49/49
f 12/53/53 11/54/54 4/56/56
f 4/56/56 11/54/54 3/55/55
f 4/57/57 3/58/58 2/64/64
f 2/64/64 3/58/58 1/63/63
f 1/63/63 3/58/58 5/60/60
f 1/63/63 5/60/60 7/62/62
f 7/62/62 5/60/60 8/61/61
f 3/58/58 6/59/59 5/60/60
f 8/65/65 18/66/66 7/68/68
f 7/68/68 18/66/66 17/67/67
f 18/69/69 16/70/70 17/72/72
f 17/72/72 16/70/70 15/71/71
f 16/73/73 20/74/74 15/76/76
f 15/76/76 20/74/74 19/75/75
f 20/77/77 22/78/78 19/80/80
f 19/80/80 22/78/78 21/79/79
f 22/81/81 36/82/82 21/84/84
f 21/84/84 36/82/82 35/83/83
f 32/86/86 30/87/87 31/85/85
f 31/85/85 30/87/87 29/88/88
f 31/85/85 29/88/88 33/91/91
f 33/91/91 29/88/88 35/89/89
f 33/91/91 35/89/89 36/90/90
f 33/91/91 34/92/92 31/85/85
f 10/94/94 2/95/95 9/93/93
f 9/93/93 2/95/95 1/96/96
f 9/93/93 1/96/96 29/97/97
f 9/93/93 29/97/97 23/100/100
f 23/100/100 29/97/97 30/98/98
f 23/100/100 30/98/98 24/99/99
f 17/101/101 15/102/102 7/108/108
f 7/108/108 15/102/102 1/107/107
f 1/107/107 15/102/102 19/103/103
f 1/107/107 19/103/103 29/106/106
f 29/106/106 19/103/103 35/105/105
f 35/105/105 19/103/103 21/104/104
# 36 vertices
# 108 texture params
# 108 normals
# 68 facets

# 1 groups
