# WaveFront *.obj file (generated by Autodesk ATF)

mtllib 2.mtl

g Sólido1

v 0.000000 0.000000 0.000000
v 0.000000 0.000000 50.000000
v 0.000000 15.000000 18.000000
v 0.000000 15.000000 32.000000
v 0.000000 43.000002 14.000000
v 0.000000 43.000002 18.000000
v 0.000000 43.000002 32.000000
v 0.000000 43.000002 35.999999
v 0.000000 50.000000 0.000000
v 0.000000 50.000000 14.000000
v 0.000000 50.000000 35.999999
v 0.000000 50.000000 50.000000
v 10.000000 50.000000 0.000000
v 10.000000 50.000000 14.000000
v 10.000000 50.000000 35.999999
v 10.000000 50.000000 50.000000
v 17.000000 43.000002 14.000000
v 17.000000 43.000002 18.000000
v 17.000000 43.000002 32.000000
v 17.000000 43.000002 35.999999
v 20.606601 39.393399 0.000000
v 20.606601 39.393399 18.000000
v 20.606601 39.393399 32.000000
v 20.606601 39.393399 50.000000
v 25.606601 29.393399 0.000000
v 25.606601 29.393399 18.000000
v 25.606601 29.393399 32.000000
v 25.606601 29.393399 50.000000
v 25.606601 39.393399 0.000000
v 25.606601 39.393399 18.000000
v 25.606601 39.393399 32.000000
v 25.606601 39.393399 50.000000
v 42.606602 11.715729 0.000000
v 42.606602 11.715729 50.000000
v 42.606602 15.000000 18.000000
v 42.606602 15.000000 32.000000
v 42.606602 16.393398 0.000000
v 42.606602 16.393398 18.000000
v 42.606602 16.393398 32.000000
v 42.606602 16.393398 50.000000
v 50.000000 0.000000 0.000000
v 50.000000 0.000000 50.000000
v 50.000000 11.715729 0.000000
v 50.000000 11.715729 50.000000
vt -4.229611 0.000000 0.000000
vt -3.529612 0.700000 0.000000
vt -5.229611 0.700000 0.000000
vt -5.229611 0.000000 0.000000
vt -1.700000 0.700000 0.000000
vt -1.000000 0.000000 0.000000
vt -0.000000 0.000000 0.000000
vt -0.000000 0.700000 0.000000
vt -0.700000 -0.914806 0.000000
vt -1.100000 -0.914806 0.000000
vt -1.100000 -2.614806 0.000000
vt -0.700000 -2.614806 0.000000
vt 1.100000 -0.914806 0.000000
vt 0.700000 -0.914806 0.000000
vt 0.700000 -2.614806 0.000000
vt 1.100000 -2.614806 0.000000
vt 0.000000 3.600000 0.000000
vt 1.000000 3.600000 0.000000
vt 1.000000 5.000000 0.000000
vt 0.000000 5.000000 0.000000
vt 1.500000 1.400000 0.000000
vt 0.510051 1.400000 0.000000
vt 0.510051 1.800000 0.000000
vt 0.000000 1.800000 0.000000
vt 0.000000 0.000000 0.000000
vt 1.500000 0.000000 0.000000
vt 0.000000 3.600000 0.000000
vt 0.700000 3.600000 0.000000
vt 0.700000 3.200000 0.000000
vt 3.500000 3.200000 0.000000
vt 3.500000 1.800000 0.000000
vt 0.700000 1.800000 0.000000
vt 0.700000 1.400000 0.000000
vt 0.000000 1.400000 0.000000
vt 0.000000 0.000000 0.000000
vt 5.000000 0.000000 0.000000
vt 5.000000 5.000000 0.000000
vt 0.000000 5.000000 0.000000
vt -0.700000 3.300000 0.000000
vt -0.700000 5.000000 0.000000
vt -3.500000 5.000000 0.000000
vt -3.500000 0.739340 0.000000
vt -3.360660 0.739340 0.000000
vt -2.060660 2.439340 0.000000
vt -1.060660 2.439340 0.000000
vt -1.060660 2.939340 0.000000
vt -1.400000 0.739340 0.000000
vt -0.000000 0.739340 0.000000
vt -0.000000 5.000000 0.000000
vt -1.400000 5.000000 0.000000
vt -2.800000 5.000000 0.000000
vt -2.800000 3.300000 0.000000
vt -2.439340 2.939340 0.000000
vt -2.439340 2.439340 0.000000
vt -1.439340 2.439340 0.000000
vt -0.139340 0.739340 0.000000
vt -0.000000 0.739340 0.000000
vt -0.000000 5.000000 0.000000
vt 0.467767 1.800000 0.000000
vt 0.328427 1.800000 0.000000
vt 0.328427 3.200000 0.000000
vt 0.467767 3.200000 0.000000
vt 0.467767 5.000000 0.000000
vt 0.000000 5.000000 0.000000
vt 0.000000 0.000000 0.000000
vt 0.467767 0.000000 0.000000
vt 0.000000 3.200000 0.000000
vt 2.140094 3.200000 0.000000
vt 2.140094 5.000000 0.000000
vt 0.000000 5.000000 0.000000
vt 0.000000 3.200000 0.000000
vt 1.000000 3.200000 0.000000
vt 1.000000 5.000000 0.000000
vt 0.000000 5.000000 0.000000
vt 0.000000 3.200000 0.000000
vt 0.500000 3.200000 0.000000
vt 0.500000 5.000000 0.000000
vt 0.000000 5.000000 0.000000
vt 0.510051 3.600000 0.000000
vt 1.500000 3.600000 0.000000
vt 1.500000 5.000000 0.000000
vt 0.000000 5.000000 0.000000
vt 0.000000 3.200000 0.000000
vt 0.510051 3.200000 0.000000
vt 1.000000 1.400000 0.000000
vt 0.000000 1.400000 0.000000
vt 0.000000 0.000000 0.000000
vt 1.000000 0.000000 0.000000
vt 0.500000 1.800000 0.000000
vt 0.000000 1.800000 0.000000
vt 0.000000 0.000000 0.000000
vt 0.500000 0.000000 0.000000
vt 1.000000 1.800000 0.000000
vt 0.000000 1.800000 0.000000
vt 0.000000 0.000000 0.000000
vt 1.000000 0.000000 0.000000
vt 2.140094 1.800000 0.000000
vt 0.000000 1.800000 0.000000
vt 0.000000 0.000000 0.000000
vt 2.140094 0.000000 0.000000
vt 0.000000 0.000000 0.000000
vt 0.739340 0.000000 0.000000
vt 0.739340 5.000000 0.000000
vt 0.000000 5.000000 0.000000
vt 0.000000 0.000000 0.000000
vt 1.171573 0.000000 0.000000
vt 1.171573 5.000000 0.000000
vt 0.000000 5.000000 0.000000
vt 0.000000 0.000000 0.000000
vt 5.000000 0.000000 0.000000
vt 5.000000 5.000000 0.000000
vt 0.000000 5.000000 0.000000
vt -2.500000 -2.500000 0.000000
vt 2.500000 -2.500000 0.000000
vt 2.500000 -1.328427 0.000000
vt 1.760660 -1.328427 0.000000
vt 1.760660 -0.860660 0.000000
vt 0.060660 0.439340 0.000000
vt 0.060660 1.439340 0.000000
vt -0.439340 1.439340 0.000000
vt -1.500000 2.500000 0.000000
vt -2.500000 2.500000 0.000000
vt -2.500000 -2.500000 0.000000
vt 2.500000 -2.500000 0.000000
vt 2.500000 2.500000 0.000000
vt 1.500000 2.500000 0.000000
vt 0.439340 1.439340 0.000000
vt -0.060660 1.439340 0.000000
vt -0.060660 0.439340 0.000000
vt -1.760660 -0.860660 0.000000
vt -1.760660 -1.328427 0.000000
vt -2.500000 -1.328427 0.000000
vn 0.000000 0.000000 -0.100000
vn 0.000000 0.000000 -0.100000
vn 0.000000 0.000000 -0.100000
vn 0.000000 0.000000 -0.100000
vn 0.000000 0.000000 0.100000
vn 0.000000 0.000000 0.100000
vn 0.000000 0.000000 0.100000
vn 0.000000 0.000000 0.100000
vn 0.000000 0.100000 0.000000
vn 0.000000 0.100000 0.000000
vn 0.000000 0.100000 0.000000
vn 0.000000 0.100000 0.000000
vn 0.000000 0.100000 0.000000
vn 0.000000 0.100000 0.000000
vn 0.000000 0.100000 0.000000
vn 0.000000 0.100000 0.000000
vn 0.000000 0.100000 0.000000
vn 0.000000 0.100000 0.000000
vn 0.000000 0.100000 0.000000
vn 0.000000 0.100000 0.000000
vn 0.070711 0.070711 0.000000
vn 0.070711 0.070711 0.000000
vn 0.070711 0.070711 0.000000
vn 0.070711 0.070711 0.000000
vn 0.070711 0.070711 0.000000
vn 0.070711 0.070711 0.000000
vn -0.100000 0.000000 0.000000
vn -0.100000 0.000000 0.000000
vn -0.100000 0.000000 0.000000
vn -0.100000 0.000000 0.000000
vn -0.100000 0.000000 0.000000
vn -0.100000 0.000000 0.000000
vn -0.100000 0.000000 0.000000
vn -0.100000 0.000000 0.000000
vn -0.100000 0.000000 0.000000
vn -0.100000 0.000000 0.000000
vn -0.100000 0.000000 0.000000
vn -0.100000 0.000000 0.000000
vn 0.000000 0.000000 0.100000
vn 0.000000 0.000000 0.100000
vn 0.000000 0.000000 0.100000
vn 0.000000 0.000000 0.100000
vn 0.000000 0.000000 0.100000
vn 0.000000 0.000000 0.100000
vn 0.000000 0.000000 0.100000
vn 0.000000 0.000000 0.100000
vn 0.000000 0.100000 0.000000
vn 0.000000 0.100000 0.000000
vn 0.000000 0.100000 0.000000
vn 0.000000 0.100000 0.000000
vn 0.000000 0.000000 -0.100000
vn 0.000000 0.000000 -0.100000
vn 0.000000 0.000000 -0.100000
vn 0.000000 0.000000 -0.100000
vn 0.000000 0.000000 -0.100000
vn 0.000000 0.000000 -0.100000
vn 0.000000 0.000000 -0.100000
vn 0.000000 0.000000 -0.100000
vn 0.100000 0.000000 0.000000
vn 0.100000 0.000000 0.000000
vn 0.100000 0.000000 0.000000
vn 0.100000 0.000000 0.000000
vn 0.100000 0.000000 0.000000
vn 0.100000 0.000000 0.000000
vn 0.100000 0.000000 0.000000
vn 0.100000 0.000000 0.000000
vn 0.060745 0.079436 0.000000
vn 0.060745 0.079436 0.000000
vn 0.060745 0.079436 0.000000
vn 0.060745 0.079436 0.000000
vn 0.100000 0.000000 0.000000
vn 0.100000 0.000000 0.000000
vn 0.100000 0.000000 0.000000
vn 0.100000 0.000000 0.000000
vn 0.000000 0.100000 0.000000
vn 0.000000 0.100000 0.000000
vn 0.000000 0.100000 0.000000
vn 0.000000 0.100000 0.000000
vn 0.070711 0.070711 0.000000
vn 0.070711 0.070711 0.000000
vn 0.070711 0.070711 0.000000
vn 0.070711 0.070711 0.000000
vn 0.070711 0.070711 0.000000
vn 0.070711 0.070711 0.000000
vn 0.000000 0.100000 0.000000
vn 0.000000 0.100000 0.000000
vn 0.000000 0.100000 0.000000
vn 0.000000 0.100000 0.000000
vn 0.000000 0.100000 0.000000
vn 0.000000 0.100000 0.000000
vn 0.000000 0.100000 0.000000
vn 0.000000 0.100000 0.000000
vn 0.100000 0.000000 0.000000
vn 0.100000 0.000000 0.000000
vn 0.100000 0.000000 0.000000
vn 0.100000 0.000000 0.000000
vn 0.060745 0.079436 0.000000
vn 0.060745 0.079436 0.000000
vn 0.060745 0.079436 0.000000
vn 0.060745 0.079436 0.000000
vn 0.000000 0.100000 0.000000
vn 0.000000 0.100000 0.000000
vn 0.000000 0.100000 0.000000
vn 0.000000 0.100000 0.000000
vn 0.100000 0.000000 0.000000
vn 0.100000 0.000000 0.000000
vn 0.100000 0.000000 0.000000
vn 0.100000 0.000000 0.000000
vn 0.000000 -0.100000 0.000000
vn 0.000000 -0.100000 0.000000
vn 0.000000 -0.100000 0.000000
vn 0.000000 -0.100000 0.000000
vn 0.000000 0.000000 0.100000
vn 0.000000 0.000000 0.100000
vn 0.000000 0.000000 0.100000
vn 0.000000 0.000000 0.100000
vn 0.000000 0.000000 0.100000
vn 0.000000 0.000000 0.100000
vn 0.000000 0.000000 0.100000
vn 0.000000 0.000000 0.100000
vn 0.000000 0.000000 0.100000
vn 0.000000 0.000000 0.100000
vn 0.000000 0.000000 -0.100000
vn 0.000000 0.000000 -0.100000
vn 0.000000 0.000000 -0.100000
vn 0.000000 0.000000 -0.100000
vn 0.000000 0.000000 -0.100000
vn 0.000000 0.000000 -0.100000
vn 0.000000 0.000000 -0.100000
vn 0.000000 0.000000 -0.100000
vn 0.000000 0.000000 -0.100000
vn 0.000000 0.000000 -0.100000
usemtl 212,207,0
f 20/2/2 8/3/3 15/1/1
f 15/1/1 8/3/3 11/4/4
f 17/5/5 14/6/6 5/8/8
f 5/8/8 14/6/6 10/7/7
f 18/9/9 17/10/10 6/12/12
f 6/12/12 17/10/10 5/11/11
f 20/13/13 19/14/14 8/16/16
f 8/16/16 19/14/14 7/15/15
f 15/17/17 11/18/18 16/20/20
f 16/20/20 11/18/18 12/19/19
f 14/21/21 17/22/22 13/26/26
f 13/26/26 17/22/22 21/25/25
f 21/25/25 17/22/22 22/24/24
f 22/24/24 17/22/22 18/23/23
f 11/27/27 8/28/28 12/38/38
f 12/38/38 8/28/28 2/37/37
f 2/37/37 8/28/28 4/30/30
f 2/37/37 4/30/30 1/36/36
f 1/36/36 4/30/30 3/31/31
f 1/36/36 3/31/31 5/33/33
f 5/33/33 3/31/31 6/32/32
f 8/28/28 7/29/29 4/30/30
f 10/34/34 9/35/35 5/33/33
f 5/33/33 9/35/35 1/36/36
f 18/39/39 6/40/40 22/46/46
f 22/46/46 6/40/40 26/44/44
f 22/46/46 26/44/44 30/45/45
f 6/40/40 3/41/41 26/44/44
f 26/44/44 3/41/41 38/43/43
f 38/43/43 3/41/41 35/42/42
f 36/47/47 35/48/48 4/50/50
f 4/50/50 35/48/48 3/49/49
f 19/52/52 23/53/53 7/51/51
f 7/51/51 23/53/53 27/55/55
f 7/51/51 27/55/55 4/58/58
f 4/58/58 27/55/55 39/56/56
f 4/58/58 39/56/56 36/57/57
f 23/53/53 31/54/54 27/55/55
f 38/59/59 35/60/60 37/66/66
f 37/66/66 35/60/60 33/65/65
f 33/65/65 35/60/60 36/61/61
f 33/65/65 36/61/61 34/64/64
f 34/64/64 36/61/61 40/63/63
f 40/63/63 36/61/61 39/62/62
f 39/67/67 27/68/68 40/70/70
f 40/70/70 27/68/68 28/69/69
f 27/71/71 31/72/72 28/74/74
f 28/74/74 31/72/72 32/73/73
f 31/75/75 23/76/76 32/78/78
f 32/78/78 23/76/76 24/77/77
f 15/80/80 16/81/81 20/79/79
f 20/79/79 16/81/81 24/82/82
f 20/79/79 24/82/82 23/83/83
f 23/83/83 19/84/84 20/79/79
f 10/85/85 14/86/86 9/88/88
f 9/88/88 14/86/86 13/87/87
f 22/89/89 30/90/90 21/92/92
f 21/92/92 30/90/90 29/91/91
f 30/93/93 26/94/94 29/96/96
f 29/96/96 26/94/94 25/95/95
f 26/97/97 38/98/98 25/100/100
f 25/100/100 38/98/98 37/99/99
f 43/101/101 33/102/102 44/104/104
f 44/104/104 33/102/102 34/103/103
f 41/105/105 43/106/106 42/108/108
f 42/108/108 43/106/106 44/107/107
f 1/109/109 41/110/110 2/112/112
f 2/112/112 41/110/110 42/111/111
f 42/114/114 34/116/116 2/113/113
f 2/113/113 34/116/116 28/118/118
f 2/113/113 28/118/118 24/120/120
f 24/120/120 28/118/118 32/119/119
f 42/114/114 44/115/115 34/116/116
f 34/116/116 40/117/117 28/118/118
f 16/121/121 12/122/122 24/120/120
f 24/120/120 12/122/122 2/113/113
f 43/132/132 41/123/123 33/131/131
f 33/131/131 41/123/123 1/124/124
f 33/131/131 1/124/124 25/129/129
f 25/129/129 1/124/124 21/127/127
f 25/129/129 21/127/127 29/128/128
f 1/124/124 9/125/125 21/127/127
f 21/127/127 9/125/125 13/126/126
f 25/129/129 37/130/130 33/131/131
# 44 vertices
# 132 texture params
# 132 normals
# 84 facets

# 1 groups
