# WaveFront *.obj file (generated by Autodesk ATF)

mtllib 2.mtl

g Sólido1

v -10.000000 0.000000 -50.000000
v -10.000000 0.000000 0.000000
v -10.000000 10.000000 -64.000001
v -10.000000 10.000000 -50.000000
v -10.000000 25.000000 -64.000001
v -10.000000 25.000000 0.000000
v -5.000000 10.000000 -64.000001
v -5.000000 10.000000 -50.000000
v -5.000000 25.000000 -64.000001
v -5.000000 25.000000 -50.000000
v 0.000000 7.000000 0.000000
v 0.000000 25.000000 -34.000001
v 0.000000 25.000000 0.000000
v 10.000000 7.000000 0.000000
v 10.000000 25.000000 -34.000001
v 10.000000 25.000000 0.000000
v 15.000000 10.000000 -64.000001
v 15.000000 10.000000 -50.000000
v 15.000000 25.000000 -64.000001
v 15.000000 25.000000 -50.000000
v 20.000000 0.000000 -50.000000
v 20.000000 0.000000 0.000000
v 20.000000 10.000000 -64.000001
v 20.000000 10.000000 -50.000000
v 20.000000 25.000000 -64.000001
v 20.000000 25.000000 0.000000
vt -0.000000 1.500000 0.000000
vt -1.400000 1.500000 0.000000
vt -1.400000 0.000000 0.000000
vt -0.000000 0.000000 0.000000
vt -0.000000 1.500000 0.000000
vt -1.400000 1.500000 0.000000
vt -1.400000 0.000000 0.000000
vt -0.000000 0.000000 0.000000
vt 0.000000 1.500000 0.000000
vt 1.400000 1.500000 0.000000
vt 1.400000 -0.500000 0.000000
vt 0.000000 -0.500000 0.000000
vt 0.000000 -1.000000 0.000000
vt 6.400000 -1.000000 0.000000
vt 6.400000 0.000000 0.000000
vt 3.000000 0.000000 0.000000
vt 3.000000 1.000000 0.000000
vt 6.400000 1.000000 0.000000
vt 6.400000 2.000000 0.000000
vt 0.000000 2.000000 0.000000
vt 0.000000 1.500000 0.000000
vt 1.400000 1.500000 0.000000
vt 1.400000 2.000000 0.000000
vt 0.000000 2.000000 0.000000
vt 1.500000 -0.500000 0.000000
vt 0.000000 -0.500000 0.000000
vt 0.000000 -1.000000 0.000000
vt 1.500000 -1.000000 0.000000
vt -3.200000 -0.250000 0.000000
vt -1.800000 -0.250000 0.000000
vt -1.800000 -1.250000 0.000000
vt 3.200000 -1.250000 0.000000
vt 3.200000 1.250000 0.000000
vt -3.200000 1.250000 0.000000
vt 5.000000 -1.000000 0.000000
vt 5.000000 2.000000 0.000000
vt 0.000000 2.000000 0.000000
vt 0.000000 -1.000000 0.000000
vt 1.800000 -1.250000 0.000000
vt 1.800000 -0.250000 0.000000
vt 3.200000 -0.250000 0.000000
vt 3.200000 1.250000 0.000000
vt -3.200000 1.250000 0.000000
vt -3.200000 -1.250000 0.000000
vt -3.200000 -0.550000 0.000000
vt 0.200000 1.250000 0.000000
vt -3.200000 1.250000 0.000000
vt -0.200000 1.250000 0.000000
vt 3.200000 -0.550000 0.000000
vt 3.200000 1.250000 0.000000
vt 0.000000 0.000000 0.000000
vt 3.847077 0.000000 0.000000
vt 3.847077 1.000000 0.000000
vt 0.000000 1.000000 0.000000
vt 0.000000 1.500000 0.000000
vt 1.500000 1.500000 0.000000
vt 1.500000 2.000000 0.000000
vt 0.000000 2.000000 0.000000
vt 1.400000 -0.500000 0.000000
vt 0.000000 -0.500000 0.000000
vt 0.000000 -1.000000 0.000000
vt 1.400000 -1.000000 0.000000
vt 0.000000 2.000000 0.000000
vt 0.000000 -1.000000 0.000000
vt 1.000000 -1.000000 0.000000
vt 1.000000 -0.500000 0.000000
vt 2.500000 -0.500000 0.000000
vt 2.500000 1.500000 0.000000
vt 1.000000 1.500000 0.000000
vt 1.000000 2.000000 0.000000
vt 0.700000 -1.000000 0.000000
vt 0.700000 2.000000 0.000000
vt -1.800000 2.000000 0.000000
vt -1.800000 1.000000 0.000000
vt 0.000000 1.000000 0.000000
vt 0.000000 0.000000 0.000000
vt -1.800000 0.000000 0.000000
vt -1.800000 -1.000000 0.000000
vn -0.100000 0.000000 0.000000
vn -0.100000 0.000000 0.000000
vn -0.100000 0.000000 0.000000
vn -0.100000 0.000000 0.000000
vn 0.100000 0.000000 0.000000
vn 0.100000 0.000000 0.000000
vn 0.100000 0.000000 0.000000
vn 0.100000 0.000000 0.000000
vn 0.000000 0.100000 0.000000
vn 0.000000 0.100000 0.000000
vn 0.000000 0.100000 0.000000
vn 0.000000 0.100000 0.000000
vn 0.000000 0.100000 0.000000
vn 0.000000 0.100000 0.000000
vn 0.000000 0.100000 0.000000
vn 0.000000 0.100000 0.000000
vn 0.000000 0.100000 0.000000
vn 0.000000 0.100000 0.000000
vn 0.000000 0.100000 0.000000
vn 0.000000 0.100000 0.000000
vn 0.000000 -0.100000 0.000000
vn 0.000000 -0.100000 0.000000
vn 0.000000 -0.100000 0.000000
vn 0.000000 -0.100000 0.000000
vn 0.000000 0.000000 -0.100000
vn 0.000000 0.000000 -0.100000
vn 0.000000 0.000000 -0.100000
vn 0.000000 0.000000 -0.100000
vn -0.100000 0.000000 0.000000
vn -0.100000 0.000000 0.000000
vn -0.100000 0.000000 0.000000
vn -0.100000 0.000000 0.000000
vn -0.100000 0.000000 0.000000
vn -0.100000 0.000000 0.000000
vn 0.000000 -0.100000 0.000000
vn 0.000000 -0.100000 0.000000
vn 0.000000 -0.100000 0.000000
vn 0.000000 -0.100000 0.000000
vn 0.100000 0.000000 0.000000
vn 0.100000 0.000000 0.000000
vn 0.100000 0.000000 0.000000
vn 0.100000 0.000000 0.000000
vn 0.100000 0.000000 0.000000
vn 0.100000 0.000000 0.000000
vn 0.100000 0.000000 0.000000
vn 0.100000 0.000000 0.000000
vn 0.100000 0.000000 0.000000
vn -0.100000 0.000000 0.000000
vn -0.100000 0.000000 0.000000
vn -0.100000 0.000000 0.000000
vn 0.000000 0.088379 0.046789
vn 0.000000 0.088379 0.046789
vn 0.000000 0.088379 0.046789
vn 0.000000 0.088379 0.046789
vn 0.000000 0.000000 -0.100000
vn 0.000000 0.000000 -0.100000
vn 0.000000 0.000000 -0.100000
vn 0.000000 0.000000 -0.100000
vn 0.000000 -0.100000 0.000000
vn 0.000000 -0.100000 0.000000
vn 0.000000 -0.100000 0.000000
vn 0.000000 -0.100000 0.000000
vn 0.000000 0.000000 -0.100000
vn 0.000000 0.000000 -0.100000
vn 0.000000 0.000000 -0.100000
vn 0.000000 0.000000 -0.100000
vn 0.000000 0.000000 -0.100000
vn 0.000000 0.000000 -0.100000
vn 0.000000 0.000000 -0.100000
vn 0.000000 0.000000 -0.100000
vn 0.000000 0.000000 0.100000
vn 0.000000 0.000000 0.100000
vn 0.000000 0.000000 0.100000
vn 0.000000 0.000000 0.100000
vn 0.000000 0.000000 0.100000
vn 0.000000 0.000000 0.100000
vn 0.000000 0.000000 0.100000
vn 0.000000 0.000000 0.100000
usemtl 13,255,0
f 17/1/1 18/2/2 19/4/4
f 19/4/4 18/2/2 20/3/3
f 8/5/5 7/6/6 10/8/8
f 10/8/8 7/6/6 9/7/7
f 19/9/9 20/10/10 25/20/20
f 25/20/20 20/10/10 26/19/19
f 26/19/19 20/10/10 15/17/17
f 26/19/19 15/17/17 16/18/18
f 20/10/10 10/11/11 15/17/17
f 15/17/17 10/11/11 12/16/16
f 12/16/16 10/11/11 6/14/14
f 12/16/16 6/14/14 13/15/15
f 9/12/12 5/13/13 10/11/11
f 10/11/11 5/13/13 6/14/14
f 18/21/21 17/22/22 24/24/24
f 24/24/24 17/22/22 23/23/23
f 9/25/25 7/26/26 5/28/28
f 5/28/28 7/26/26 3/27/27
f 3/29/29 4/30/30 5/34/34
f 5/34/34 4/30/30 6/33/33
f 6/33/33 4/30/30 2/32/32
f 2/32/32 4/30/30 1/31/31
f 21/36/36 22/37/37 1/35/35
f 1/35/35 22/37/37 2/38/38
f 21/39/39 24/40/40 22/44/44
f 22/44/44 24/40/40 26/43/43
f 26/43/43 24/40/40 25/42/42
f 25/42/42 24/40/40 23/41/41
f 11/45/45 12/46/46 13/47/47
f 15/48/48 14/49/49 16/50/50
f 12/51/51 11/52/52 15/54/54
f 15/54/54 11/52/52 14/53/53
f 17/55/55 19/56/56 23/58/58
f 23/58/58 19/56/56 25/57/57
f 7/59/59 8/60/60 3/62/62
f 3/62/62 8/60/60 4/61/61
f 24/70/70 21/63/63 18/69/69
f 18/69/69 21/63/63 1/64/64
f 18/69/69 1/64/64 8/66/66
f 8/66/66 1/64/64 4/65/65
f 8/66/66 10/67/67 18/69/69
f 18/69/69 10/67/67 20/68/68
f 22/72/72 14/75/75 2/71/71
f 2/71/71 14/75/75 11/76/76
f 2/71/71 11/76/76 6/78/78
f 6/78/78 11/76/76 13/77/77
f 22/72/72 26/73/73 14/75/75
f 14/75/75 26/73/73 16/74/74
# 26 vertices
# 78 texture params
# 78 normals
# 48 facets

# 1 groups
